<svg xmlns="http://www.w3.org/2000/svg" width="960" height="520" viewBox="0 0 960 520">
<rect width="100%" height="100%" fill="#ffffff"/>
<text x="96" y="38" font-family="Arial, sans-serif" font-size="24" font-weight="700" fill="#202020">Phase 6 CUDA-Console Copy Gap</text>
<line x1="96" y1="436" x2="924" y2="436" stroke="#333" stroke-width="1"/>
<line x1="96" y1="72" x2="96" y2="436" stroke="#333" stroke-width="1"/>
<line x1="90" y1="436.0" x2="924" y2="436.0" stroke="#e5e5e5" stroke-width="1"/>
<text x="84" y="440.0" font-family="Arial, sans-serif" font-size="12" text-anchor="end" fill="#555">0</text>
<line x1="90" y1="345.0" x2="924" y2="345.0" stroke="#e5e5e5" stroke-width="1"/>
<text x="84" y="349.0" font-family="Arial, sans-serif" font-size="12" text-anchor="end" fill="#555">252.0K</text>
<line x1="90" y1="254.0" x2="924" y2="254.0" stroke="#e5e5e5" stroke-width="1"/>
<text x="84" y="258.0" font-family="Arial, sans-serif" font-size="12" text-anchor="end" fill="#555">504.1K</text>
<line x1="90" y1="163.0" x2="924" y2="163.0" stroke="#e5e5e5" stroke-width="1"/>
<text x="84" y="167.0" font-family="Arial, sans-serif" font-size="12" text-anchor="end" fill="#555">756.1K</text>
<line x1="90" y1="72.0" x2="924" y2="72.0" stroke="#e5e5e5" stroke-width="1"/>
<text x="84" y="76.0" font-family="Arial, sans-serif" font-size="12" text-anchor="end" fill="#555">1.01M</text>
<rect x="96.0" y="436.0" width="95.0" height="0.0" rx="3" fill="#2f6f9f"/>
<text x="143.5" y="428.0" font-family="Arial, sans-serif" font-size="12" text-anchor="middle" fill="#222">136</text>
<text x="143.5" y="454" font-family="Arial, sans-serif" font-size="11" text-anchor="end" transform="rotate(-35 143.5 454)" fill="#333">rgb @ 1</text>
<rect x="199.0" y="433.0" width="95.0" height="3.0" rx="3" fill="#3f8f5f"/>
<text x="246.5" y="425.0" font-family="Arial, sans-serif" font-size="12" text-anchor="middle" fill="#222">8.3K</text>
<text x="246.5" y="454" font-family="Arial, sans-serif" font-size="11" text-anchor="end" transform="rotate(-35 246.5 454)" fill="#333">no_copy @ 1</text>
<rect x="302.0" y="435.7" width="95.0" height="0.3" rx="3" fill="#2f6f9f"/>
<text x="349.5" y="427.7" font-family="Arial, sans-serif" font-size="12" text-anchor="middle" fill="#222">825</text>
<text x="349.5" y="454" font-family="Arial, sans-serif" font-size="11" text-anchor="end" transform="rotate(-35 349.5 454)" fill="#333">rgb @ 8</text>
<rect x="405.0" y="412.4" width="95.0" height="23.6" rx="3" fill="#3f8f5f"/>
<text x="452.5" y="404.4" font-family="Arial, sans-serif" font-size="12" text-anchor="middle" fill="#222">65.4K</text>
<text x="452.5" y="454" font-family="Arial, sans-serif" font-size="11" text-anchor="end" transform="rotate(-35 452.5 454)" fill="#333">no_copy @ 8</text>
<rect x="508.0" y="435.4" width="95.0" height="0.6" rx="3" fill="#2f6f9f"/>
<text x="555.5" y="427.4" font-family="Arial, sans-serif" font-size="12" text-anchor="middle" fill="#222">1.7K</text>
<text x="555.5" y="454" font-family="Arial, sans-serif" font-size="11" text-anchor="end" transform="rotate(-35 555.5 454)" fill="#333">rgb @ 32</text>
<rect x="611.0" y="346.2" width="95.0" height="89.8" rx="3" fill="#3f8f5f"/>
<text x="658.5" y="338.2" font-family="Arial, sans-serif" font-size="12" text-anchor="middle" fill="#222">248.8K</text>
<text x="658.5" y="454" font-family="Arial, sans-serif" font-size="11" text-anchor="end" transform="rotate(-35 658.5 454)" fill="#333">no_copy @ 32</text>
<rect x="714.0" y="434.7" width="95.0" height="1.3" rx="3" fill="#2f6f9f"/>
<text x="761.5" y="426.7" font-family="Arial, sans-serif" font-size="12" text-anchor="middle" fill="#222">3.6K</text>
<text x="761.5" y="454" font-family="Arial, sans-serif" font-size="11" text-anchor="end" transform="rotate(-35 761.5 454)" fill="#333">rgb @ 128</text>
<rect x="817.0" y="72.0" width="95.0" height="364.0" rx="3" fill="#3f8f5f"/>
<text x="864.5" y="64.0" font-family="Arial, sans-serif" font-size="12" text-anchor="middle" fill="#222">1.01M</text>
<text x="864.5" y="454" font-family="Arial, sans-serif" font-size="11" text-anchor="end" transform="rotate(-35 864.5 454)" fill="#333">no_copy @ 128</text>
<text x="504.0" y="504" font-family="Arial, sans-serif" font-size="13" text-anchor="middle" fill="#444">CUDA-console env-steps/sec, A100</text>
</svg>
